<svg preserveAspectRatio="none" overflow="visible" style="display: block;" width="120" height="120" viewBox="0 0 120 120" fill="none" xmlns="http://www.w3.org/2000/svg">
<g id="phone">
<path id="Vector" d="M72.4586 83.1482C71.356 83.4236 70.1926 83.3152 69.1599 82.841C55.2709 76.0244 44.0312 64.7988 37.1973 50.9184C36.6912 49.8802 36.5601 48.6988 36.8262 47.5749C37.0924 46.451 37.7394 45.4538 38.6574 44.7529L40.9976 42.9978C42.2397 42.0662 43.2478 40.8583 43.9421 39.4696C44.6364 38.0809 44.9979 36.5497 44.9979 34.9971V19.9959C44.9979 17.3435 43.9443 14.7998 42.0687 12.9243C40.1932 11.0488 37.6495 9.99512 34.9971 9.99512H19.9959C17.3435 9.99512 14.7998 11.0488 12.9243 12.9243C11.0488 14.7998 9.99512 17.3435 9.99512 19.9959C9.99512 43.8673 19.478 66.761 36.3576 83.6406C53.2372 100.52 76.1309 110.003 100.002 110.003C102.655 110.003 105.198 108.949 107.074 107.074C108.949 105.198 110.003 102.655 110.003 100.002V85.0011C110.003 82.3487 108.949 79.805 107.074 77.9295C105.198 76.054 102.655 75.0003 100.002 75.0003H85.0011C83.4485 75.0003 81.9173 75.3618 80.5286 76.0561C79.14 76.7505 77.932 77.7586 77.0005 79.0006L75.2253 81.3258C74.537 82.23 73.5611 82.8728 72.4586 83.1482Z" stroke="#333729" stroke-opacity="0.2" stroke-width="2" stroke-linecap="round"/>
</g>
</svg>
