<svg preserveAspectRatio="none" overflow="visible" style="display: block;" width="120" height="120" viewBox="0 0 120 120" fill="none" xmlns="http://www.w3.org/2000/svg">
<g id="heart">
<path id="Vector" d="M14.8352 31.9211C11.6822 36.5057 9.99424 41.9389 9.99414 47.5029C9.99414 59.003 17.4947 67.5031 24.9953 75.0032L52.5374 101.663C53.4826 102.722 54.6422 103.567 55.9391 104.142C57.236 104.718 58.6406 105.011 60.0594 105.002C61.4783 104.993 62.879 104.682 64.1685 104.09C65.458 103.498 66.6068 102.638 67.5386 101.568L95.0007 75.0032C102.501 67.5031 110.002 58.953 110.002 47.5029C110.028 41.9267 108.356 36.4746 105.207 31.8723C102.058 27.27 97.5822 23.7358 92.3748 21.7401C87.1675 19.7444 81.4759 19.3818 76.0574 20.7007C70.6389 22.0195 65.7506 24.9572 62.0431 29.1227C61.7812 29.4028 61.4645 29.6261 61.1127 29.7787C60.7609 29.9314 60.3815 30.0102 59.998 30.0102C59.6145 30.0102 59.2351 29.9314 58.8833 29.7787C58.5315 29.6261 58.2148 29.4028 57.9528 29.1227C54.2337 24.9841 49.3465 22.0709 43.9368 20.7679C38.5271 19.4649 32.8494 19.8333 27.6535 21.8247C22.4577 23.816 17.9881 27.3364 14.8352 31.9211Z" stroke="#333729" stroke-opacity="0.2" stroke-width="2" stroke-linecap="round"/>
</g>
</svg>
